<?xml version="1.0" encoding="UTF-8"?>
<svg width="16px" height="16px" viewBox="0 0 16 16" version="1.1" xmlns="http://www.w3.org/2000/svg" xmlns:xlink="http://www.w3.org/1999/xlink">
    <title>CPU</title>
    <g id="页面-1" stroke="none" stroke-width="1" fill="none" fill-rule="evenodd">
        <g id="0801图标" transform="translate(-158.000000, -119.000000)">
            <g id="CPU" transform="translate(158.000000, 119.000000)">
                <g id="编组" transform="translate(1.000000, 1.000000)" fill-rule="nonzero">
                    <path d="M14,4.2 L14,4.2 C14,4.6 13.8,4.8 13.4,4.8 L11.4,4.8 C11,4.8 10.8,4.6 10.8,4.2 L10.8,4.2 C10.8,3.8 11,3.6 11.4,3.6 L13.4,3.6 C13.8,3.6 14,3.8 14,4.2 Z" id="路径" fill="#324558"></path>
                    <path d="M3.2,4.2 L3.2,4.2 C3.2,4.6 3,4.8 2.60000001,4.8 L0.599999996,4.8 C0.199999999,4.8 -2.48689958e-16,4.6 -2.48689958e-16,4.2 L-2.48689958e-16,4.2 C-2.48689958e-16,3.8 0.199999999,3.6 0.599999996,3.6 L2.60000001,3.6 C3,3.6 3.2,3.8 3.2,4.2 Z" id="路径" fill="#324558"></path>
                    <path d="M14,7 L14,7 C14,7.4 13.8,7.6 13.4,7.6 L11.4,7.6 C11,7.6 10.8,7.4 10.8,7 L10.8,7 C10.8,6.6 11,6.4 11.4,6.4 L13.4,6.4 C13.8,6.4 14,6.6 14,7 Z" id="路径" fill="#324558"></path>
                    <path d="M3.2,7 L3.2,7 C3.2,7.4 3,7.6 2.60000001,7.6 L0.599999996,7.6 C0.199999999,7.6 -2.48689958e-16,7.4 -2.48689958e-16,7 L-2.48689958e-16,7 C-2.48689958e-16,6.6 0.199999999,6.4 0.599999996,6.4 L2.60000001,6.4 C3,6.4 3.2,6.6 3.2,7 Z" id="路径" fill="#324558"></path>
                    <path d="M14,9.8 L14,9.8 C14,10.2 13.8,10.4 13.4,10.4 L11.4,10.4 C11,10.4 10.8,10.2 10.8,9.8 L10.8,9.8 C10.8,9.4 11,9.2 11.4,9.2 L13.4,9.2 C13.8,9.2 14,9.4 14,9.8 Z" id="路径" fill="#324558"></path>
                    <path d="M3.2,9.8 L3.2,9.8 C3.2,10.2 3,10.4 2.60000001,10.4 L0.599999996,10.4 C0.199999999,10.4 -2.48689958e-16,10.2 -2.48689958e-16,9.8 L-2.48689958e-16,9.8 C-2.48689958e-16,9.4 0.199999999,9.2 0.599999996,9.2 L2.60000001,9.2 C3,9.2 3.2,9.4 3.2,9.8 Z" id="路径" fill="#324558"></path>
                    <path d="M4.2,0 L4.2,0 C4.6,0 4.8,0.199999999 4.8,0.599999996 L4.8,2.60000001 C4.8,3 4.6,3.2 4.2,3.2 L4.2,3.2 C3.8,3.2 3.6,3 3.6,2.60000001 L3.6,0.599999996 C3.6,0.199999999 3.8,0 4.2,0 Z" id="路径" fill="#324558"></path>
                    <path d="M4.2,10.8 L4.2,10.8 C4.6,10.8 4.8,11 4.8,11.4 L4.8,13.4 C4.8,13.8 4.6,14 4.2,14 L4.2,14 C3.8,14 3.6,13.8 3.6,13.4 L3.6,11.4 C3.6,11 3.8,10.8 4.2,10.8 Z" id="路径" fill="#324558"></path>
                    <path d="M7,0 L7,0 C7.4,0 7.6,0.199999999 7.6,0.599999996 L7.6,2.60000001 C7.6,3 7.4,3.2 7,3.2 L7,3.2 C6.6,3.2 6.4,3 6.4,2.60000001 L6.4,0.599999996 C6.4,0.199999999 6.6,0 7,0 Z" id="路径" fill="#324558"></path>
                    <path d="M7,10.8 L7,10.8 C7.4,10.8 7.6,11 7.6,11.4 L7.6,13.4 C7.6,13.8 7.4,14 7,14 L7,14 C6.6,14 6.4,13.8 6.4,13.4 L6.4,11.4 C6.4,11 6.6,10.8 7,10.8 Z" id="路径" fill="#324558"></path>
                    <path d="M9.8,0 L9.8,0 C10.2,0 10.4,0.199999999 10.4,0.599999996 L10.4,2.60000001 C10.4,3 10.2,3.2 9.8,3.2 L9.8,3.2 C9.4,3.2 9.2,3 9.2,2.60000001 L9.2,0.599999996 C9.2,0.199999999 9.4,0 9.8,0 Z" id="路径" fill="#324558"></path>
                    <path d="M9.8,10.8 L9.8,10.8 C10.2,10.8 10.4,11 10.4,11.4 L10.4,13.4 C10.4,13.8 10.2,14 9.8,14 L9.8,14 C9.4,14 9.2,13.8 9.2,13.4 L9.2,11.4 C9.2,11 9.4,10.8 9.8,10.8 Z" id="路径" fill="#324558"></path>
                    <path d="M2.8,2 L11.2,2 C11.7333333,2 12,2.26666666 12,2.8 L12,11.2 C12,11.7333333 11.7333333,12 11.2,12 L2.8,12 C2.26666666,12 2,11.7333333 2,11.2 L2,2.8 C2,2.26666666 2.26666666,2 2.8,2 Z" id="路径" fill="#B6C2CD"></path>
                    <path d="M4.39999999,4.00000001 L9.60000001,4.00000001 C9.86666667,4.00000001 10,4.13333334 10,4.39999999 L10,9.60000001 C10,9.86666667 9.86666666,10 9.60000001,10 L4.39999999,10 C4.13333333,10 4.00000001,9.86666666 4.00000001,9.60000001 L4.00000001,4.39999999 C4.00000001,4.13333333 4.13333334,4.00000001 4.39999999,4.00000001 Z" id="路径" fill="#324558"></path>
                </g>
                <rect id="矩形" x="0" y="0" width="16" height="16"></rect>
            </g>
        </g>
    </g>
</svg>