<?xml version="1.0" encoding="UTF-8"?>
<svg width="16px" height="16px" viewBox="0 0 16 16" version="1.1" xmlns="http://www.w3.org/2000/svg" xmlns:xlink="http://www.w3.org/1999/xlink">
    <title>资源池</title>
    <g id="页面-1" stroke="none" stroke-width="1" fill="none" fill-rule="evenodd">
        <g id="0801图标" transform="translate(-158.000000, -92.000000)">
            <g id="资源池" transform="translate(158.000000, 92.000000)">
                <g transform="translate(1.000000, 1.000000)" fill-rule="nonzero">
                    <path d="M7.20239646,0.0609577812 L9.91061465,1.56738236 C10.0590515,1.64888669 10.1516425,1.80445034 10.152507,1.97378936 L10.152507,4.96781693 C10.1515387,5.13694715 10.0589413,5.29225462 9.91061465,5.37352684 L7.20239646,6.87995141 C7.05823735,6.95998771 6.8829867,6.95998771 6.73882758,6.87995141 L4.0313065,5.37352684 C3.88324905,5.29207209 3.79093938,5.13679977 3.79011126,4.96781693 L3.79011126,1.97378936 C3.79011126,1.80509212 3.88282504,1.64963969 4.0313065,1.56738236 L6.73952468,0.0602606817 C6.8836838,-0.0197756137 7.05893445,-0.0197756137 7.20309356,0.0602606817 L7.20239646,0.0609577812 Z M3.4129823,6.18982631 L6.12259467,7.69694799 C6.27005967,7.77872779 6.36158922,7.9340345 6.36169861,8.10265789 L6.36169861,11.0966855 C6.36169861,11.2639885 6.26968194,11.4194409 6.12259467,11.5010012 L3.4129823,13.0102141 C3.26882319,13.0902504 3.09357254,13.0902504 2.94941342,13.0102141 L0.240498137,11.5030925 C0.0921661659,11.4213246 0,11.2653648 0,11.0959884 L0,8.10126371 C0,7.93326355 0.0913195896,7.77850824 0.240498137,7.6962509 L2.94941342,6.18843213 C3.09357254,6.10839583 3.26882319,6.10839583 3.4129823,6.18843213 L3.4129823,6.18912922 L3.4129823,6.18982631 Z M10.9925077,6.18982631 L13.701423,7.69694799 C13.8492074,7.77850822 13.9419211,7.93396065 13.9419211,8.10126371 L13.9419211,11.0966855 C13.9419211,11.2639885 13.8492074,11.4194409 13.7021201,11.5010012 L10.9932048,13.0102141 C10.8490457,13.0902504 10.6737951,13.0902504 10.5296359,13.0102141 L7.82072067,11.5030925 C7.67238869,11.4213246 7.58022252,11.2653648 7.58022252,11.0959884 L7.58022252,8.10126371 C7.58022252,7.93326355 7.67154211,7.77850824 7.82072067,7.6962509 L10.5296359,6.18843213 C10.6736138,6.10865359 10.8485298,6.10865359 10.9925077,6.18843213 L10.9925077,6.18912922 L10.9925077,6.18982631 Z" id="形状" fill="#B6C2CD"></path>
                    <path d="M4.88803756,1.95148228 C4.83118916,1.98395572 4.79668641,2.04495065 4.79814093,2.11040406 C4.79959545,2.17585747 4.83677368,2.23525948 4.89500851,2.26517552 L6.88870323,3.27387351 C6.94089577,3.30010442 7.00241956,3.30010442 7.0546121,3.27387351 L9.0503981,2.2665697 C9.10970885,2.23701629 9.1477603,2.17703183 9.14922277,2.11078207 C9.15068523,2.04453231 9.11531789,1.98292712 9.05736907,1.9507852 L7.06367434,0.820095395 C7.00752096,0.788003954 6.93858275,0.788003954 6.88242937,0.820095395 L4.88873464,1.95287648 L4.88873464,1.95148228 L4.88803756,1.95148228 Z" id="路径" fill="#324558"></path>
                    <path d="M3.03585333,9.43411137 C3.08785561,9.46010933 3.14906282,9.46010933 3.2010651,9.43411137 L5.19475982,8.42680756 C5.25393207,8.39753134 5.29210732,8.33797924 5.2940053,8.27198794 C5.29590328,8.20599665 5.26121387,8.14434888 5.20382207,8.11172015 L3.20873316,6.98103035 C3.15254256,6.94907931 3.08367877,6.94907931 3.02748817,6.98103035 L1.03379346,8.11311433 C0.97670752,8.14572866 0.942177837,8.20708948 0.94392655,8.27281192 C0.945675263,8.33853437 0.9834191,8.39797217 1.04215861,8.42750466 L3.03585333,9.43480846 L3.03585333,9.43411137 Z" id="路径" fill="#324558"></path>
                    <path d="M10.4536525,9.4292317 C10.504414,9.45846441 10.5661168,9.46157547 10.6195613,9.43759684 L12.8795468,8.42192789 C12.9415278,8.39458359 12.9826814,8.33450214 12.9857844,8.26682844 C12.9888873,8.19915473 12.9534044,8.13555939 12.8941858,8.10265789 L10.9165243,6.97893906 C10.8605494,6.94711253 10.7919513,6.94711253 10.7359764,6.97893906 L8.72346006,8.12217659 C8.66823793,8.15384209 8.63406431,8.21252547 8.6337751,8.27618162 C8.63348954,8.33983777 8.6671319,8.39882731 8.72206586,8.43099014 L10.4536525,9.4292317 L10.4536525,9.4292317 Z" id="路径" fill="#324558"></path>
                </g>
                <rect id="矩形" x="0" y="0" width="16" height="16"></rect>
            </g>
        </g>
    </g>
</svg>