<?xml version="1.0" encoding="UTF-8"?>
<svg width="16px" height="16px" viewBox="0 0 16 16" version="1.1" xmlns="http://www.w3.org/2000/svg" xmlns:xlink="http://www.w3.org/1999/xlink">
    <title>磁盘</title>
    <g id="页面-1" stroke="none" stroke-width="1" fill="none" fill-rule="evenodd">
        <g id="0801图标" transform="translate(-129.000000, -119.000000)">
            <g id="磁盘" transform="translate(129.000000, 119.000000)">
                <g id="编组" transform="translate(2.000000, 2.000000)" fill-rule="nonzero">
                    <path d="M7.8,3.6 C7.8,4.01538462 7.24615385,4.8 6,4.8 C4.75384615,4.8 4.2,4.01538462 4.2,3.6 C4.2,3.18461538 4.75384615,2.4 6,2.4 C7.24615385,2.4 7.8,3.18461538 7.8,3.6 Z M2.44615385,0 C1.89230769,0 1.38461538,0.415384615 1.24615385,0.969230769 L0,7.06153846 L0,10.8 C0,11.4461538 0.553846154,12 1.2,12 L10.8,12 C11.4461538,12 12,11.4461538 12,10.8 L12,7.2 L12,7.06153846 L10.7538462,0.969230769 C10.6153846,0.415384615 10.1076923,0 9.55384615,0 L2.44615385,0 Z M1.2,8.4 L10.8,8.4 L10.8,10.8 L1.2,10.8 L1.2,8.4 Z" id="形状" fill="#B6C2CD"></path>
                    <polygon id="路径" fill="#324558" points="7.2 9 9.6 9 9.6 10.2 7.2 10.2"></polygon>
                    <path d="M9,3.6 C9,4.93846154 7.66153846,6 6,6 C4.33846154,6 3,4.93846154 3,3.6 C3,2.26153846 4.33846154,1.2 6,1.2 C7.66153846,1.2 9,2.26153846 9,3.6 L9,3.6 Z" id="路径" fill="#324558"></path>
                </g>
                <rect id="矩形" x="0" y="0" width="16" height="16"></rect>
            </g>
        </g>
    </g>
</svg>