<?xml version="1.0" encoding="UTF-8"?>
<svg width="16px" height="16px" viewBox="0 0 16 16" version="1.1" xmlns="http://www.w3.org/2000/svg" xmlns:xlink="http://www.w3.org/1999/xlink">
    <title>内存</title>
    <g id="页面-1" stroke="none" stroke-width="1" fill="none" fill-rule="evenodd">
        <g id="0801图标" transform="translate(-126.000000, -89.000000)">
            <g id="内存" transform="translate(126.000000, 89.000000)">
                <g id="编组" transform="translate(0.000000, 4.000000)" fill-rule="nonzero">
                    <polygon id="路径" fill="#B6C2CD" points="15.4105263 1.74376645 15.9442105 1.74376645 15.9442105 0.351842105 0.00973684211 0.351842105 0.00973684211 1.74376645 0.574440789 1.74376645 0.574440789 3.60355263 0.00973684211 3.60355263 0.00973684211 7.38580592 1.44445724 7.38580592 1.44445724 6.48133224 1.74748355 6.10506579 2.17620066 6.10506579 2.47935855 6.48133224 2.47935855 7.38580592 3.16615132 7.38580592 3.16615132 6.48133224 3.46924342 6.10506579 3.89796053 6.10506579 4.20111842 6.48133224 4.20111842 7.38580592 4.88784539 7.38580592 4.88784539 6.48133224 5.19101974 6.10506579 5.61972039 6.10506579 5.92282895 6.48133224 5.92282895 7.38580592 6.60976974 7.38580592 6.60976974 6.48133224 6.91286184 6.10506579 7.3415625 6.10506579 7.64467105 6.48133224 7.64467105 7.38580592 8.33144737 7.38580592 8.33144737 6.48133224 8.63462171 6.10506579 9.06327303 6.10506579 9.36643092 6.48133224 9.36643092 7.38580592 10.0532895 7.38580592 10.0532895 6.48133224 10.356398 6.10506579 10.7850987 6.10506579 11.088273 6.48133224 11.088273 7.38580592 11.7750658 7.38580592 11.7750658 6.48133224 12.0782237 6.10506579 12.506875 6.10506579 12.8100329 6.48133224 12.8100329 7.38580592 13.4968257 7.38580592 13.4968257 6.48133224 13.8 6.10506579 14.2286349 6.10506579 14.5318092 6.48133224 14.5318092 7.38580592 15.9442105 7.38580592 15.9442105 3.60355263 15.4105263 3.60355263"></polygon>
                    <polygon id="路径" fill="#FFFFFF" points="12.1547039 1.91907895 14.1579934 1.91907895 14.1579934 4.92402961 12.1547039 4.92402961"></polygon>
                    <polygon id="路径" fill="#324558" points="12.3891447 2.15847039 13.9236349 2.15847039 13.9236349 4.68453947 12.3891447 4.68453947"></polygon>
                    <polygon id="路径" fill="#FFFFFF" points="9.56504934 1.91907895 11.5682566 1.91907895 11.5682566 4.92402961 9.56504934 4.92402961"></polygon>
                    <polygon id="路径" fill="#324558" points="9.79947368 2.15847039 11.333898 2.15847039 11.333898 4.68453947 9.79947368 4.68453947"></polygon>
                    <polygon id="路径" fill="#FFFFFF" points="6.97532895 1.91907895 8.97860197 1.91907895 8.97860197 4.92402961 6.97532895 4.92402961"></polygon>
                    <polygon id="路径" fill="#324558" points="7.20975329 2.15847039 8.74409539 2.15847039 8.74409539 4.68453947 7.20975329 4.68453947"></polygon>
                    <polygon id="路径" fill="#FFFFFF" points="4.38569079 1.91907895 6.38888158 1.91907895 6.38888158 4.92402961 4.38569079 4.92402961"></polygon>
                    <polygon id="路径" fill="#324558" points="4.62004934 2.15847039 6.15452303 2.15847039 6.15452303 4.68453947 4.62004934 4.68453947"></polygon>
                    <polygon id="路径" fill="#FFFFFF" points="1.79588816 1.91907895 3.79922697 1.91907895 3.79922697 4.92402961 1.79588816 4.92402961"></polygon>
                    <polygon id="路径" fill="#324558" points="2.03046053 2.15847039 3.56480263 2.15847039 3.56480263 4.68453947 2.03046053 4.68453947"></polygon>
                    <polygon id="路径" fill="#324558" points="0.00973684211 0.0122697368 15.9442105 0.0122697368 15.9442105 1.28539474 0.00973684211 1.28539474"></polygon>
                </g>
                <rect id="矩形" x="0" y="0" width="16" height="16"></rect>
            </g>
        </g>
    </g>
</svg>